<svg xmlns="http://www.w3.org/2000/svg" viewBox="456.161 226 79.281 48.215">
  <defs>
    <style>
      .cls-1 {
        fill: #fff;
      }

      .cls-2 {
        fill: #00ffd2;
      }
    </style>
  </defs>
  <g id="CBTS_logo_twocolor_reverse" transform="translate(456.161 226)">
    <g id="Layer_1" data-name="Layer 1" transform="translate(0)">
      <path id="Path_837" data-name="Path 837" class="cls-1" d="M11.161,30.192a10.834,10.834,0,0,0,9.553-5.5l-4.737-2.7a5.216,5.216,0,0,1-4.86,2.792,5.535,5.535,0,0,1-5.663-5.757,5.544,5.544,0,0,1,5.668-5.791,5.225,5.225,0,0,1,4.821,2.832L20.63,13.3a10.637,10.637,0,0,0-9.47-5.417A10.917,10.917,0,0,0,0,19.028,10.917,10.917,0,0,0,11.161,30.192M35,7.879a8.212,8.212,0,0,0-6.85,3.088V0H22.7V29.6h5.456V27.084A8.212,8.212,0,0,0,35,30.172c5.668,0,10.341-4.86,10.341-11.164S40.668,7.879,35,7.879M33.975,24.991a5.675,5.675,0,0,1-5.835-5.963,5.68,5.68,0,0,1,5.835-5.963,5.742,5.742,0,0,1,5.909,5.963,5.7,5.7,0,0,1-5.909,5.963M59.981,13.7V8.455H55.2V2.546l-5.441,1.64V8.455H46.08V13.7h3.679v8.795c0,5.707,2.58,7.948,10.233,7.106V24.676c-3.127.167-4.777.128-4.777-2.157V13.7Zm8.371.758c0-1.142,1.1-1.733,2.462-1.733A3.575,3.575,0,0,1,74.2,14.886l4.649-2.536a8.908,8.908,0,0,0-8.032-4.481c-4.338.01-8.032,2.4-8.032,6.717,0,7.441,10.908,5.752,10.908,8.839,0,1.226-1.182,1.817-2.915,1.817a4.025,4.025,0,0,1-4.141-2.748L61.9,25.159c1.522,3.255,4.649,5.033,8.864,5.033,4.526,0,8.5-2.2,8.5-6.766,0-7.781-10.908-5.835-10.908-8.967" transform="translate(0.006)"/>
      <path id="Path_838" data-name="Path 838" class="cls-2" d="M4.333,88.977A4.333,4.333,0,1,0,0,84.643a4.333,4.333,0,0,0,4.333,4.333" transform="translate(0.003 -40.762)"/>
      <path id="Path_839" data-name="Path 839" class="cls-2" d="M52.133,88.977A4.333,4.333,0,1,0,47.8,84.643a4.333,4.333,0,0,0,4.333,4.333" transform="translate(-24.259 -40.762)"/>
      <path id="Path_840" data-name="Path 840" class="cls-2" d="M99.923,88.977a4.333,4.333,0,1,0-4.333-4.333,4.333,4.333,0,0,0,4.333,4.333" transform="translate(-48.515 -40.762)"/>
      <path id="Path_841" data-name="Path 841" class="cls-2" d="M147.723,88.977a4.333,4.333,0,1,0-4.333-4.333,4.333,4.333,0,0,0,4.333,4.333" transform="translate(-72.776 -40.762)"/>
    </g>
  </g>
</svg>
