<svg height="135.84" viewBox="0 0 906.66669 135.84" width="906.66669" xmlns="http://www.w3.org/2000/svg">
    <g transform="matrix(.13333333 0 0 -.13333333 0 135.84)">
        <path d="m609.172 380.73h-186.672l203.414 556.286c17.969 49.14 64.727 81.824 117.051 81.824h99.539z" fill="#175efc"/>
        <path d="m905.094 380.73h-186.672l233.336 638.11h186.672z" fill="#175efc"/>
        <path d="m1201.02 380.73h-186.67l233.33 638.11h186.67z" fill="#175efc"/>
        <path d="m236.246 477.742-236.246 236.238 237.285 237.286 100.258-100.258-137.023-137.028 135.984-135.984z" fill="#175efc"/>
        <path d="m6562.71 477.742-100.25 100.254 137.02 137.027-135.98 135.985 100.25 100.258 236.25-236.243z" fill="#175efc"/>
        <g fill="#FFFFFF">
            <path d="m2022.39 485.516-1.31 242.718-117.75-197.601h-57.58l-117.12 191.058v-236.175h-119.7v457.972h106.63l160.93-264.308 157.02 264.308h106.63l1.33-457.972z"/>
            <path d="m2592.22 600c18.75 10.879 33.59 26.277 44.5 46.133 10.88 19.82 16.34 42.605 16.34 68.347 0 25.747-5.46 48.528-16.34 68.387-10.91 19.821-25.75 35.211-44.5 46.098-18.76 10.926-39.69 16.363-62.8 16.363-23.14 0-44.06-5.437-62.81-16.363-18.76-10.887-33.58-26.277-44.48-46.098-10.91-19.859-16.37-42.64-16.37-68.387 0-25.742 5.46-48.527 16.37-68.347 10.9-19.856 25.72-35.254 44.48-46.133 18.75-10.883 39.67-16.367 62.81-16.367 23.11 0 44.04 5.484 62.8 16.367zm-193.32-92.902c-38.59 20.488-68.92 48.836-90.95 85.07-22.03 36.18-33.02 76.969-33.02 122.312 0 45.387 10.99 86.129 33.02 122.36 22.03 36.18 52.36 64.539 90.95 85.019 38.6 20.528 82.11 30.789 130.52 30.789 48.42 0 91.92-10.261 130.52-30.789 38.6-20.48 68.9-48.839 90.93-85.019 22.03-36.231 33.04-76.973 33.04-122.36 0-45.343-11.01-86.132-33.04-122.312-22.03-36.234-52.33-64.582-90.93-85.07-38.6-20.528-82.1-30.743-130.52-30.743-48.41 0-91.92 10.215-130.52 30.743"/>
            <path d="m3330.83 485.516-1.31 242.718-117.75-197.601h-57.58l-117.11 191.058v-236.175h-119.71v457.972h106.63l160.94-264.308 157.01 264.308h106.63l1.33-457.972z"/>
            <path d="m3974.6 585.625v-100.109h-367.67v457.972h359.15v-100.101h-230.93v-77.192h203.46v-96.832h-203.46v-83.738z"/>
            <path d="m4547.68 943.488v-457.972h-106.64l-202.15 244.004v-244.004h-126.92v457.972h106.63l202.16-244.047v244.047z"/>
            <path d="m4802.2 840.773h-140.68v102.715h410.21v-102.715h-140.01v-355.257h-129.52z"/>
            <path d="m5231.04 531.961c-37.73 37.07-56.6 89.617-56.6 157.656v253.871h129.54v-249.933c0-73.254 29.01-109.922 87.02-109.922 57.55 0 86.35 36.668 86.35 109.922v249.933h127.57v-253.871c0-68.039-18.86-120.586-56.59-157.656s-90.6-55.606-158.65-55.606c-68.04 0-120.93 18.536-158.64 55.606"/>
            <path d="m6171.46 485.516-1.3 242.718-117.76-197.601h-57.58l-117.11 191.058v-236.175h-119.7v457.972h106.63l160.93-264.308 157.02 264.308h106.63l1.33-457.972z"/>
            <path d="m3073.99 91.4141c7.74 4.7656 13.86 11.3869 18.34 19.8829 4.48 8.484 6.72 18.144 6.72 28.973 0 11.757-3.45 20.957-10.36 27.578s-16.61 9.945-29.12 9.945c-9.89 0-18.72-2.387-26.45-7.141-7.75-4.757-13.87-11.386-18.34-19.882-4.49-8.497-6.72-18.157-6.72-28.973 0-11.762 3.45-20.957 10.35-27.5782 6.91-6.6329 16.61-9.9454 29.12-9.9454 9.89 0 18.72 2.3829 26.46 7.1407zm28 108.2149c9.98-5.227 17.87-12.785 23.66-22.68 5.78-9.89 8.68-21.562 8.68-35 0-16.609-3.69-31.59-11.06-44.9295-7.38-13.3476-17.45-23.8007-30.24-31.3672-12.79-7.5585-27.02-11.3398-42.7-11.3398-11.76 0-22.02 2.0508-30.79 6.1641-8.78 4.1015-15.59 10.0781-20.44 17.9179l-15.13-76.43356h-34.99l40.6 203.82806h33.32l-3.09-15.676c13.07 11.567 29.31 17.356 48.72 17.356 12.32 0 23.47-2.617 33.46-7.84"/>
            <path d="m3254.58 91.4141c7.74 4.7656 13.86 11.3869 18.34 19.8829 4.48 8.484 6.72 18.144 6.72 28.973 0 11.757-3.45 20.957-10.36 27.578s-16.61 9.945-29.12 9.945c-9.89 0-18.71-2.387-26.45-7.141-7.75-4.757-13.87-11.386-18.34-19.882-4.49-8.497-6.72-18.157-6.72-28.973 0-11.762 3.45-20.957 10.35-27.5782 6.91-6.6329 16.62-9.9454 29.13-9.9454 9.88 0 18.71 2.3829 26.45 7.1407zm-66.91-28.8399c-10.92 5.5117-19.37 13.2031-25.34 23.0977-5.98 9.8906-8.96 21.3791-8.96 34.4411 0 16.614 3.78 31.543 11.34 44.797 7.56 13.25 18.1 23.66 31.63 31.223 13.54 7.555 28.8 11.336 45.78 11.336 14.56 0 27.35-2.707 38.36-8.117 11.01-5.418 19.51-13.067 25.48-22.957 5.97-9.903 8.96-21.379 8.96-34.446 0-16.609-3.83-31.543-11.48-44.7927-7.65-13.254-18.25-23.711-31.78-31.3555-13.53-7.6602-28.79-11.4883-45.78-11.4883-14.56 0-27.3 2.7539-38.21 8.2617"/>
            <path d="m3593.22 205.789-83.43-149.5117h-34.44l-20.16 103.0357-58.52-103.0357h-33.88l-27.44 149.5117h31.92l19.04-110.0273 62.44 110.0273h29.96l19.87-110.0273 61.61 110.0273z"/>
            <path d="m3638.15 169.949c-8.3-6.347-14.04-15.027-17.21-26.035h85.67c.19 11.199-3.21 19.922-10.21 26.18-7.01 6.25-16.38 9.375-28.15 9.375-11.76 0-21.79-3.172-30.1-9.52zm98.42-49.277h-118.71c.56-24.4532 14.93-36.6798 43.12-36.6798 8.58 0 16.61 1.3555 24.08 4.0625 7.46 2.707 13.81 6.4844 19.03 11.3359l14.56-24.3554c-7.65-6.9024-16.84-12.0899-27.58-15.5352-10.73-3.457-21.98-5.1875-33.74-5.1875-14.93 0-27.95 2.707-39.05 8.125-11.11 5.4102-19.65 13.1094-25.62 23.0977-5.98 9.9804-8.96 21.5158-8.96 34.5778 0 16.614 3.68 31.594 11.06 44.942 7.37 13.34 17.64 23.75 30.8 31.211 13.16 7.472 27.95 11.203 44.37 11.203 20.91 0 37.62-5.832 50.12-17.5 12.51-11.668 18.76-27.676 18.76-48.02 0-7.273-.74-14.375-2.24-21.277"/>
            <path d="m3838.62 202.715c9.43 3.172 20.68 4.754 33.74 4.754l-6.43-33.321c-3.19.567-6.08.84-8.68.84-28.57 0-45.83-15.019-51.8-45.078l-14.84-73.6327h-35l29.68 149.5117h33.31l-3.91-19.316c6.53 7.644 14.51 13.066 23.93 16.242"/>
            <path d="m3926.26 169.949c-8.3-6.347-14.04-15.027-17.22-26.035h85.68c.18 11.199-3.22 19.922-10.22 26.18-7 6.25-16.37 9.375-28.14 9.375-11.76 0-21.79-3.172-30.1-9.52zm98.42-49.277h-118.71c.55-24.4532 14.93-36.6798 43.11-36.6798 8.59 0 16.61 1.3555 24.08 4.0625s13.81 6.4844 19.04 11.3359l14.56-24.3554c-7.66-6.9024-16.85-12.0899-27.58-15.5352-10.73-3.457-21.98-5.1875-33.74-5.1875-14.93 0-27.95 2.707-39.05 8.125-11.12 5.4102-19.65 13.1094-25.63 23.0977-5.97 9.9804-8.95 21.5158-8.95 34.5778 0 16.614 3.68 31.594 11.05 44.942 7.37 13.34 17.65 23.75 30.8 31.211 13.17 7.472 27.95 11.203 44.38 11.203 20.91 0 37.61-5.832 50.11-17.5 12.51-11.668 18.76-27.676 18.76-48.02 0-7.273-.74-14.375-2.23-21.277"/>
            <path d="m4146.47 91.4141c7.84 4.7656 13.95 11.3869 18.34 19.8829 4.38 8.484 6.58 18.144 6.58 28.973 0 11.757-3.46 20.957-10.36 27.578-6.91 6.621-16.62 9.945-29.12 9.945-9.7 0-18.48-2.387-26.31-7.141-7.85-4.757-13.96-11.386-18.34-19.882-4.4-8.497-6.59-18.157-6.59-28.973 0-11.762 3.45-20.957 10.37-27.5782 6.9-6.6329 16.61-9.9454 29.12-9.9454 9.69 0 18.47 2.3829 26.31 7.1407zm84.84 172.6169-41.44-207.7537h-33.32l3.08 15.4024c-13.44-11.5742-29.59-17.3672-48.44-17.3672-12.31 0-23.48 2.6172-33.46 7.8438-9.99 5.2265-17.88 12.832-23.66 22.8203-5.78 9.9843-8.68 21.7034-8.68 35.1364 0 16.797 3.64 31.828 10.93 45.078 7.27 13.254 17.3 23.614 30.1 31.075 12.78 7.472 27.11 11.203 42.97 11.203 11.76 0 21.98-1.961 30.66-5.879 8.68-3.914 15.44-9.707 20.3-17.363l15.96 79.804z"/>
            <path d="m4427.43 91.4141c7.75 4.7656 13.86 11.3869 18.34 19.8829 4.47 8.484 6.72 18.144 6.72 28.973 0 11.757-3.46 20.957-10.36 27.578-6.91 6.621-16.61 9.945-29.12 9.945-9.89 0-18.71-2.387-26.46-7.141-7.75-4.757-13.85-11.386-18.34-19.882-4.48-8.497-6.72-18.157-6.72-28.973 0-11.762 3.45-20.957 10.37-27.5782 6.9-6.6329 16.61-9.9454 29.11-9.9454 9.89 0 18.71 2.3829 26.46 7.1407zm28 108.2149c9.98-5.227 17.87-12.785 23.65-22.68 5.79-9.89 8.68-21.562 8.68-35 0-16.609-3.68-31.59-11.05-44.9295-7.38-13.3476-17.46-23.8007-30.25-31.3672-12.78-7.5585-27.01-11.3398-42.69-11.3398-12.31 0-22.96 2.1992-31.91 6.582-8.97 4.3868-15.79 10.7852-20.44 19.1797l-4.77-23.7969h-33.32l41.45 207.7537h35l-14.29-72.234c12.69 10.445 28.18 15.672 46.48 15.672 12.32 0 23.47-2.617 33.46-7.84"/>
            <path d="m4671.16 205.789-103.03-162.6757c-10.28-16.2305-20.02-27.4844-29.26-33.73439-9.24-6.25-20.49-9.37891-33.74-9.37891-7.47 0-14.85 1.21875-22.12 3.64063-7.29 2.42968-12.97 5.59765-17.08 9.51957l17.36 25.4804c6.91-6.3476 15.12-9.5234 24.64-9.5234 5.97 0 11.19 1.543 15.67 4.6211 4.49 3.0742 9.06 8.3594 13.72 15.8203l4.76 7.2773-35.27 148.9531h35l25.19-110.8671 69.16 110.8671z"/>
            <path d="m4816.46 221.473h-64.96l6.17 30.789h166.3l-6.43-30.789h-64.96l-32.76-165.1957h-36.39z"/>
            <path d="m5059.9 194.313c9.81-8.778 14.7-21.278 14.7-37.516 0-4.484-.65-10.363-1.95-17.641l-16.53-82.8787h-35l16.24 82.0317c.75 3.742 1.13 7.57 1.13 11.484 0 18.105-9.99 27.156-29.96 27.156-12.89 0-23.52-3.594-31.92-10.777-8.4-7.192-14.1-17.973-17.08-32.336l-15.68-77.5587h-35l41.44 207.7537h35l-14.56-73.078c12.88 11.008 29.3 16.516 49.28 16.516 16.8 0 30.1-4.383 39.89-13.156"/>
            <path d="m5157.9 169.949c-8.3-6.347-14.04-15.027-17.22-26.035h85.68c.18 11.199-3.22 19.922-10.22 26.18-7 6.25-16.37 9.375-28.14 9.375-11.76 0-21.79-3.172-30.1-9.52zm98.42-49.277h-118.71c.55-24.4532 14.93-36.6798 43.11-36.6798 8.59 0 16.61 1.3555 24.08 4.0625s13.81 6.4844 19.04 11.3359l14.56-24.3554c-7.66-6.9024-16.85-12.0899-27.58-15.5352-10.73-3.457-21.98-5.1875-33.74-5.1875-14.93 0-27.95 2.707-39.05 8.125-11.12 5.4102-19.65 13.1094-25.63 23.0977-5.97 9.9804-8.95 21.5158-8.95 34.5778 0 16.614 3.68 31.594 11.05 44.942 7.38 13.34 17.65 23.75 30.8 31.211 13.17 7.472 27.95 11.203 44.38 11.203 20.91 0 37.61-5.832 50.11-17.5 12.51-11.668 18.76-27.676 18.76-48.02 0-7.273-.74-14.375-2.23-21.277"/>
            <path d="m5404.56 63.9727c-14.28 7-25.24 16.8437-32.9 29.539-7.66 12.6993-11.47 27.2583-11.47 43.6833 0 22.024 5.03 41.993 15.11 59.91 10.08 17.922 24.26 32.063 42.56 42.422 18.29 10.364 39.29 15.539 63 15.539 16.98 0 31.96-2.804 44.93-8.398 12.97-5.598 22.82-13.723 29.54-24.355l-26.32-22.122c-11.01 15.305-27.91 22.961-50.67 22.961-16.24 0-30.53-3.742-42.84-11.203-12.33-7.469-21.84-17.597-28.56-30.379-6.73-12.785-10.08-26.836-10.08-42.14 0-16.61 5.32-29.774 15.96-39.4691 10.64-9.707 25.75-14.5625 45.35-14.5625 22.59 0 41.17 7.5586 55.73 22.6756l21.28-22.9607c-9.34-10.6328-20.82-18.5703-34.45-23.7969-13.62-5.2226-28.74-7.8437-45.35-7.8437-19.6 0-36.54 3.5078-50.82 10.5"/>
            <path d="m5596.2 236.172c-3.91 3.816-5.88 8.433-5.88 13.855 0 6.348 2.2 11.661 6.58 15.957 4.39 4.297 10.13 6.446 17.22 6.446 6.16 0 11.2-1.828 15.12-5.461 3.92-3.641 5.89-8.074 5.89-13.297 0-6.914-2.2-12.512-6.59-16.801-4.39-4.297-10.12-6.441-17.21-6.441-6.16 0-11.2 1.914-15.13 5.742zm-10.35-30.383h34.99l-29.68-149.5117h-35z"/>
            <path d="m5720.1 202.715c9.42 3.172 20.67 4.754 33.74 4.754l-6.44-33.321c-3.18.567-6.07.84-8.68.84-28.56 0-45.83-15.019-51.8-45.078l-14.84-73.6327h-35l29.69 149.5117h33.31l-3.92-19.316c6.54 7.644 14.51 13.066 23.94 16.242"/>
            <path d="m5787.86 62.5742c-11.11 5.5117-19.65 13.2031-25.62 23.0977-5.98 9.8906-8.96 21.3791-8.96 34.4411 0 16.614 3.82 31.543 11.48 44.797 7.65 13.25 18.24 23.66 31.77 31.223 13.54 7.555 28.99 11.336 46.34 11.336 15.13 0 28.15-2.942 39.06-8.821 10.92-5.878 19.37-14.605 25.35-26.179l-29.97-15.403c-6.9 13.821-19.31 20.727-37.23 20.727-9.9 0-18.72-2.387-26.47-7.141-7.74-4.757-13.85-11.386-18.34-19.882-4.47-8.497-6.72-18.157-6.72-28.973 0-11.762 3.46-20.957 10.37-27.5782 6.9-6.6329 16.7-9.9454 29.4-9.9454 8.57 0 16.33 1.7305 23.23 5.1758 6.91 3.4571 12.79 8.6367 17.64 15.5468l25.76-17.3593c-6.9-10.4609-16.42-18.6172-28.55-24.5039-12.14-5.8789-25.39-8.8203-39.76-8.8203-14.76 0-27.68 2.7539-38.78 8.2617"/>
            <path d="m6089.26 205.789-29.96-149.5117h-33.32l3.36 16.5235c-13.44-12.3242-30.34-18.4883-50.68-18.4883-16.42 0-29.54 4.4336-39.33 13.3008-9.81 8.8672-14.7 21.3281-14.7 37.3827 0 5.969.64 11.945 1.95 17.922l16.53 82.871h35l-16.53-82.031c-.74-3.742-1.12-7.559-1.12-11.485 0-8.781 2.48-15.4996 7.42-20.1558 4.94-4.668 12.36-7.0039 22.27-7.0039 12.68 0 23.23 3.5976 31.63 10.7812 8.4 7.1795 14 17.9605 16.8 32.3355l15.68 77.559z"/>
            <path d="m6145.25 236.172c-3.91 3.816-5.87 8.433-5.87 13.855 0 6.348 2.19 11.661 6.58 15.957 4.38 4.297 10.12 6.446 17.21 6.446 6.17 0 11.21-1.828 15.12-5.461 3.93-3.641 5.89-8.074 5.89-13.297 0-6.914-2.2-12.512-6.58-16.801-4.4-4.297-10.13-6.441-17.22-6.441-6.16 0-11.2 1.914-15.13 5.742zm-10.35-30.383h34.99l-29.68-149.5117h-35z"/>
            <path d="m6235.4 106.395c-.37-2.989-.56-5.137-.56-6.4341 0-11.2031 5.88-16.8086 17.64-16.8086 7.29 0 13.82 1.961 19.6 5.879l6.16-25.754c-9.52-5.9726-21.56-8.9648-36.11-8.9648-12.88 0-23.24 3.5469-31.09 10.6484-7.84 7.0899-11.75 16.8829-11.75 29.3907 0 4.1015.37 8.0314 1.12 11.7574l14.28 70.559h-24.36l5.6 28h24.35l6.72 34.156h35l-7-34.156h40.32l-5.59-28h-40.33z"/>
        </g>
    </g>
</svg>
